<mxfile host="app.diagrams.net" modified="2023-12-13T21:54:58.580Z" agent="Mozilla/5.0 (Windows NT 10.0; Win64; x64) AppleWebKit/537.36 (KHTML, like Gecko) Chrome/120.0.0.0 Safari/537.36 Edg/120.0.0.0" etag="03GHUMdNQGPv3r8n2u53" version="22.1.8" type="github">
  <diagram name="Page-1" id="q-BdPLxYHYOHB2cO5-gn">
    <mxGraphModel dx="1386" dy="785" grid="1" gridSize="10" guides="1" tooltips="1" connect="1" arrows="1" fold="1" page="1" pageScale="1" pageWidth="850" pageHeight="1100" math="0" shadow="0">
      <root>
        <mxCell id="0" />
        <mxCell id="1" parent="0" />
        <mxCell id="aXZ5IF4UV8qPW7W8IuV3-4" value="&lt;b&gt;&lt;font style=&quot;font-size: 16px;&quot;&gt;MAUI&lt;/font&gt;&lt;/b&gt;" style="shape=umlFrame;whiteSpace=wrap;html=1;pointerEvents=0;recursiveResize=0;container=1;collapsible=0;width=160;" parent="1" vertex="1">
          <mxGeometry x="30" y="10" width="1070" height="240" as="geometry" />
        </mxCell>
        <mxCell id="_t3p58fLD2KB7Tg4fAcJ-1" value="Barcode Punch" style="swimlane;childLayout=stackLayout;horizontal=1;startSize=50;horizontalStack=0;rounded=1;fontSize=14;fontStyle=0;strokeWidth=2;resizeParent=0;resizeLast=1;shadow=0;dashed=0;align=center;arcSize=4;whiteSpace=wrap;html=1;" parent="aXZ5IF4UV8qPW7W8IuV3-4" vertex="1">
          <mxGeometry x="40" y="60" width="160" height="120" as="geometry" />
        </mxCell>
        <mxCell id="_t3p58fLD2KB7Tg4fAcJ-2" value="+scan badge barcode&lt;br&gt;+Attribute2&lt;br&gt;+Attribute3" style="align=left;strokeColor=none;fillColor=none;spacingLeft=4;fontSize=12;verticalAlign=top;resizable=0;rotatable=0;part=1;html=1;" parent="_t3p58fLD2KB7Tg4fAcJ-1" vertex="1">
          <mxGeometry y="50" width="160" height="70" as="geometry" />
        </mxCell>
        <mxCell id="_t3p58fLD2KB7Tg4fAcJ-3" value="Domain Punch" style="swimlane;childLayout=stackLayout;horizontal=1;startSize=50;horizontalStack=0;rounded=1;fontSize=14;fontStyle=0;strokeWidth=2;resizeParent=0;resizeLast=1;shadow=0;dashed=0;align=center;arcSize=4;whiteSpace=wrap;html=1;" parent="aXZ5IF4UV8qPW7W8IuV3-4" vertex="1">
          <mxGeometry x="230" y="60" width="160" height="120" as="geometry" />
        </mxCell>
        <mxCell id="_t3p58fLD2KB7Tg4fAcJ-4" value="+Domain username&lt;br&gt;+Attribute2&lt;br&gt;+Attribute3" style="align=left;strokeColor=none;fillColor=none;spacingLeft=4;fontSize=12;verticalAlign=top;resizable=0;rotatable=0;part=1;html=1;" parent="_t3p58fLD2KB7Tg4fAcJ-3" vertex="1">
          <mxGeometry y="50" width="160" height="70" as="geometry" />
        </mxCell>
        <mxCell id="_t3p58fLD2KB7Tg4fAcJ-5" value="App Punch" style="swimlane;childLayout=stackLayout;horizontal=1;startSize=50;horizontalStack=0;rounded=1;fontSize=14;fontStyle=0;strokeWidth=2;resizeParent=0;resizeLast=1;shadow=0;dashed=0;align=center;arcSize=4;whiteSpace=wrap;html=1;" parent="aXZ5IF4UV8qPW7W8IuV3-4" vertex="1">
          <mxGeometry x="420" y="60" width="160" height="120" as="geometry" />
        </mxCell>
        <mxCell id="_t3p58fLD2KB7Tg4fAcJ-6" value="+Attribute1&lt;br&gt;+available offline&lt;br&gt;+Attribute3" style="align=left;strokeColor=none;fillColor=none;spacingLeft=4;fontSize=12;verticalAlign=top;resizable=0;rotatable=0;part=1;html=1;" parent="_t3p58fLD2KB7Tg4fAcJ-5" vertex="1">
          <mxGeometry y="50" width="160" height="70" as="geometry" />
        </mxCell>
        <mxCell id="aXZ5IF4UV8qPW7W8IuV3-13" value="settings" style="label;fontStyle=0;strokeColor=none;fillColor=none;align=left;verticalAlign=top;overflow=hidden;spacingLeft=28;spacingRight=4;rotatable=0;points=[[0,0.5],[1,0.5]];portConstraint=eastwest;imageWidth=16;imageHeight=16;whiteSpace=wrap;html=1;image=img/clipart/Gear_128x128.png" parent="aXZ5IF4UV8qPW7W8IuV3-4" vertex="1">
          <mxGeometry x="630" y="20" width="120" height="26" as="geometry" />
        </mxCell>
        <mxCell id="KgC7QJs5YlmkTOmfCvmI-1" value="History" style="swimlane;childLayout=stackLayout;horizontal=1;startSize=50;horizontalStack=0;rounded=1;fontSize=14;fontStyle=0;strokeWidth=2;resizeParent=0;resizeLast=1;shadow=0;dashed=0;align=center;arcSize=4;whiteSpace=wrap;html=1;" vertex="1" parent="aXZ5IF4UV8qPW7W8IuV3-4">
          <mxGeometry x="840" y="60" width="160" height="120" as="geometry" />
        </mxCell>
        <mxCell id="KgC7QJs5YlmkTOmfCvmI-2" value="+view history for self&lt;br&gt;+view history for employees&lt;br&gt;+Attribute3" style="align=left;strokeColor=none;fillColor=none;spacingLeft=4;fontSize=12;verticalAlign=top;resizable=0;rotatable=0;part=1;html=1;" vertex="1" parent="KgC7QJs5YlmkTOmfCvmI-1">
          <mxGeometry y="50" width="160" height="70" as="geometry" />
        </mxCell>
        <mxCell id="KgC7QJs5YlmkTOmfCvmI-3" value="" style="line;strokeWidth=2;direction=south;html=1;" vertex="1" parent="aXZ5IF4UV8qPW7W8IuV3-4">
          <mxGeometry x="600" y="10" width="10" height="220" as="geometry" />
        </mxCell>
        <mxCell id="KgC7QJs5YlmkTOmfCvmI-4" value="Equipment Select" style="swimlane;childLayout=stackLayout;horizontal=1;startSize=50;horizontalStack=0;rounded=1;fontSize=14;fontStyle=0;strokeWidth=2;resizeParent=0;resizeLast=1;shadow=0;dashed=0;align=center;arcSize=4;whiteSpace=wrap;html=1;" vertex="1" parent="aXZ5IF4UV8qPW7W8IuV3-4">
          <mxGeometry x="630" y="60" width="160" height="120" as="geometry" />
        </mxCell>
        <mxCell id="KgC7QJs5YlmkTOmfCvmI-5" value="+view history for self&lt;br&gt;+view history for employees&lt;br&gt;+Attribute3" style="align=left;strokeColor=none;fillColor=none;spacingLeft=4;fontSize=12;verticalAlign=top;resizable=0;rotatable=0;part=1;html=1;" vertex="1" parent="KgC7QJs5YlmkTOmfCvmI-4">
          <mxGeometry y="50" width="160" height="70" as="geometry" />
        </mxCell>
        <mxCell id="aXZ5IF4UV8qPW7W8IuV3-6" value="&lt;b&gt;&lt;font style=&quot;font-size: 16px;&quot;&gt;Logic&lt;/font&gt;&lt;/b&gt;" style="shape=umlFrame;whiteSpace=wrap;html=1;pointerEvents=0;recursiveResize=0;container=1;collapsible=0;width=160;" parent="1" vertex="1">
          <mxGeometry x="30" y="260" width="780" height="370" as="geometry" />
        </mxCell>
        <mxCell id="aXZ5IF4UV8qPW7W8IuV3-15" value="Domain Manager" style="swimlane;whiteSpace=wrap;html=1;" parent="aXZ5IF4UV8qPW7W8IuV3-6" vertex="1">
          <mxGeometry x="30" y="60" width="220" height="130" as="geometry" />
        </mxCell>
        <mxCell id="aXZ5IF4UV8qPW7W8IuV3-16" value="determines if user logged into domain" style="text;html=1;align=center;verticalAlign=middle;resizable=0;points=[];autosize=1;strokeColor=none;fillColor=none;" parent="aXZ5IF4UV8qPW7W8IuV3-15" vertex="1">
          <mxGeometry y="30" width="220" height="30" as="geometry" />
        </mxCell>
        <mxCell id="aXZ5IF4UV8qPW7W8IuV3-17" value="Environment Manager" style="swimlane;whiteSpace=wrap;html=1;" parent="aXZ5IF4UV8qPW7W8IuV3-6" vertex="1">
          <mxGeometry x="260" y="60" width="220" height="130" as="geometry" />
        </mxCell>
        <mxCell id="aXZ5IF4UV8qPW7W8IuV3-18" value="determines custom actions &lt;br&gt;based on environment:&lt;br&gt;Zebra&lt;br&gt;Mobile&lt;br&gt;Win PC&lt;br&gt;Apple PC" style="text;html=1;align=left;verticalAlign=middle;resizable=0;points=[];autosize=1;strokeColor=none;fillColor=none;" parent="aXZ5IF4UV8qPW7W8IuV3-17" vertex="1">
          <mxGeometry x="20" y="30" width="170" height="100" as="geometry" />
        </mxCell>
        <mxCell id="aXZ5IF4UV8qPW7W8IuV3-19" value="Accessories Manager" style="swimlane;whiteSpace=wrap;html=1;" parent="aXZ5IF4UV8qPW7W8IuV3-6" vertex="1">
          <mxGeometry x="490" y="60" width="220" height="130" as="geometry" />
        </mxCell>
        <mxCell id="aXZ5IF4UV8qPW7W8IuV3-20" value="Enumerates accessories used by &lt;br&gt;application. &lt;br&gt;Offers connection to accessories.&lt;br&gt;camera&lt;br&gt;barcode reader" style="text;html=1;align=left;verticalAlign=middle;resizable=0;points=[];autosize=1;strokeColor=none;fillColor=none;" parent="aXZ5IF4UV8qPW7W8IuV3-19" vertex="1">
          <mxGeometry x="10" y="30" width="200" height="90" as="geometry" />
        </mxCell>
        <mxCell id="aXZ5IF4UV8qPW7W8IuV3-22" value="Login Manager" style="swimlane;whiteSpace=wrap;html=1;" parent="aXZ5IF4UV8qPW7W8IuV3-6" vertex="1">
          <mxGeometry x="260" y="220" width="220" height="130" as="geometry" />
        </mxCell>
        <mxCell id="aXZ5IF4UV8qPW7W8IuV3-23" value="----------------------------------" style="text;html=1;align=center;verticalAlign=middle;resizable=0;points=[];autosize=1;strokeColor=none;fillColor=none;" parent="aXZ5IF4UV8qPW7W8IuV3-22" vertex="1">
          <mxGeometry x="30" y="30" width="160" height="30" as="geometry" />
        </mxCell>
        <mxCell id="aXZ5IF4UV8qPW7W8IuV3-26" value="Screens Access Manager" style="swimlane;whiteSpace=wrap;html=1;" parent="aXZ5IF4UV8qPW7W8IuV3-6" vertex="1">
          <mxGeometry x="30" y="220" width="220" height="130" as="geometry" />
        </mxCell>
        <mxCell id="aXZ5IF4UV8qPW7W8IuV3-27" value="----------------------------------" style="text;html=1;align=center;verticalAlign=middle;resizable=0;points=[];autosize=1;strokeColor=none;fillColor=none;" parent="aXZ5IF4UV8qPW7W8IuV3-26" vertex="1">
          <mxGeometry x="30" y="30" width="160" height="30" as="geometry" />
        </mxCell>
        <mxCell id="aXZ5IF4UV8qPW7W8IuV3-28" value="&lt;b&gt;&lt;font style=&quot;font-size: 16px;&quot;&gt;Azure&lt;/font&gt;&lt;/b&gt;" style="shape=umlFrame;whiteSpace=wrap;html=1;pointerEvents=0;recursiveResize=0;container=1;collapsible=0;width=160;" parent="1" vertex="1">
          <mxGeometry x="30" y="650" width="780" height="240" as="geometry" />
        </mxCell>
        <mxCell id="_t3p58fLD2KB7Tg4fAcJ-7" value="API Login GateWay" style="swimlane;whiteSpace=wrap;html=1;" parent="aXZ5IF4UV8qPW7W8IuV3-28" vertex="1">
          <mxGeometry x="30" y="60" width="160" height="130" as="geometry" />
        </mxCell>
        <mxCell id="aXZ5IF4UV8qPW7W8IuV3-1" value="DB Connector" style="swimlane;whiteSpace=wrap;html=1;" parent="aXZ5IF4UV8qPW7W8IuV3-28" vertex="1">
          <mxGeometry x="218" y="60" width="160" height="130" as="geometry" />
        </mxCell>
        <mxCell id="aXZ5IF4UV8qPW7W8IuV3-2" value="" style="sketch=0;html=1;aspect=fixed;strokeColor=none;shadow=0;fillColor=#3B8DF1;verticalAlign=top;labelPosition=center;verticalLabelPosition=bottom;shape=mxgraph.gcp2.database_2" parent="aXZ5IF4UV8qPW7W8IuV3-28" vertex="1">
          <mxGeometry x="440" y="70" width="78" height="100" as="geometry" />
        </mxCell>
      </root>
    </mxGraphModel>
  </diagram>
</mxfile>
